<svg width="325" height="367" viewBox="0 0 325 367" fill="none" xmlns="http://www.w3.org/2000/svg">
<path d="M310.167 48.9395C329.927 78.4675 324.707 119.836 318.176 152.852C307.34 207.624 288.775 264.442 264.5 314.781C260.205 323.688 253.805 338.416 245.821 344.274C243.839 345.729 239.28 345.302 237 344.869C232.146 343.947 228.212 340.467 224.469 337.473C238.47 312.35 249.864 285.188 260.94 258.683C272.126 231.913 284.131 204.441 292.536 176.682C304.715 136.459 310.041 90.929 310.167 48.9395Z" fill="#FFB921"/>
<path d="M0 0H200.088H220.943C242.258 3.00795 262.689 6.68806 283.082 13.8737C291.06 16.6847 300.704 20.3584 306.825 26.3575C311.111 30.559 310.162 43.0638 310.169 48.678L310.167 48.9394C310.041 90.9289 304.715 136.459 292.536 176.682C284.131 204.441 272.126 231.913 260.94 258.683C249.864 285.188 238.47 312.35 224.469 337.473C221.714 342.732 218.165 349.095 214.055 353.391C211.155 356.422 206.359 357.47 202.291 357.51C194.068 357.593 188.242 352.225 184.664 345.234C180.628 337.349 179.606 324.666 177.851 315.874C172.27 287.912 167.099 259.695 159.41 232.223C157.675 226.023 155.527 214.869 150.748 210.38C149.746 209.438 148.814 209.789 147.5 209.832C142.027 212.52 137.836 222.773 135.508 228.278C128.566 244.696 122.916 263.126 120.206 280.765C117.593 297.775 120.279 350.422 111.771 362.5C110.046 364.95 106.16 366.292 103.313 366.697C99.9556 367.175 95.1904 366.288 92.4688 364.187C83.0067 356.881 35.1828 226.428 28.2463 206.158L14.484 160.543C7.65676 135.189 3.30998 109.979 0 83.9673V58.057V0ZM218.486 329.8L267.512 221.847C276.516 199.374 285.096 176.321 290.317 152.631C294.498 133.658 296.171 113.269 297.919 93.918C299.535 76.0365 301.23 58.4821 300.551 40.494C300.182 38.3423 299.862 35.4743 298.722 33.5935C292.837 23.8902 255.361 16.0953 243.843 13.7936C229.547 10.9367 213.363 7.45861 198.779 9.24651C185.718 10.8476 173.08 16.2125 160.794 20.6507C151.693 23.9384 142.378 27.2153 132.577 27.2056C126.433 27.1995 120.347 25.2549 114.413 23.8396C92.339 18.5756 70.889 9.58206 47.808 12.0551C41.2284 12.7601 32.9774 14.6306 27.3817 18.3335C19.0803 23.8267 15.3284 39.3259 13.547 48.618C9.45534 69.9612 10.4401 90.9455 14.1134 112.244C25.3384 177.328 51.8309 240.801 75.2466 302.345L88.7554 336.727C91.2283 342.625 93.514 349.11 97.1393 354.412C97.5573 355.023 99.7434 355.772 100.5 356.116C103.626 355.361 103.809 354.986 105.703 352.5C106.714 328.885 107.024 303.463 110.565 280.133C113.148 263.11 117.874 245.882 123.843 229.748C127.478 219.921 132.395 208.032 140.307 200.87C142.947 198.481 145.448 197.707 148.991 197.959C152.858 198.234 155.8 200.699 158.2 203.565C172.045 220.096 174.415 249.076 178.224 269.693L188.238 321.536C189.505 327.578 190.695 338.23 194.028 343.362C195.774 346.051 199.859 347.513 202.919 347.785C204.592 347.935 205.954 347.686 207.5 347.033L207.894 346.87C212.227 344.973 216.383 334.176 218.486 329.8ZM0 0V58.057C3.06251 44.2231 3.07808 30.5013 11.7427 18.3548C18.3099 9.14863 27.949 5.00738 38.7697 2.98561C47.8297 1.29283 57.3019 0.2799 66.5114 1.19244C82.1966 2.74663 98.2946 8.77607 113.415 13.2556C119.04 14.9222 126.539 17.7581 132.356 17.657C136.598 17.5833 141.357 15.6953 145.382 14.4404L171.594 5.96563C180.969 3.27752 190.483 1.59562 200.088 0H0Z" fill="black"/>
<path d="M218.485 329.8L208.747 312.073C202.744 298.765 198.111 284.456 194.369 270.361C184.47 233.082 178.407 195.275 173.82 157.021C172.065 142.378 167.677 121.583 172.996 107.746C183.456 80.5383 218.79 57.0306 244.45 45.7537C262.606 37.7749 281.433 33.072 300.55 40.494C301.229 58.4821 299.534 76.0365 297.918 93.918C296.17 113.269 294.497 133.658 290.316 152.631C285.095 176.321 276.515 199.374 267.511 221.847L218.485 329.8Z" fill="#FFB921"/>
</svg>
